{
    "accessors": [
        {
            "bufferView": 0,
            "componentType": 5125,
            "count": 6,
            "max": [
                3.0
            ],
            "min": [
                0.0
            ],
            "name": "mesh0_idx_accessor",
            "type": "SCALAR"
        },
        {
            "bufferView": 1,
            "componentType": 5126,
            "count": 4,
            "max": [
                0.011165219359099865,
                -0.028284404426813126,
                0.02500000037252903
            ],
            "min": [
                0.004953453782945871,
                -0.028284404426813126,
                0.0
            ],
            "name": "mesh0_coord_accessor",
            "type": "VEC3"
        },
        {
            "bufferView": 2,
            "componentType": 5126,
            "count": 4,
            "max": [
                0.0,
                -1.0,
                0.0
            ],
            "min": [
                0.0,
                -1.0,
                0.0
            ],
            "name": "mesh0_norm_accessor",
            "type": "VEC3"
        },
        {
            "bufferView": 3,
            "componentType": 5125,
            "count": 6,
            "max": [
                3.0
            ],
            "min": [
                0.0
            ],
            "name": "mesh1_idx_accessor",
            "type": "SCALAR"
        },
        {
            "bufferView": 4,
            "componentType": 5126,
            "count": 4,
            "max": [
                0.011165219359099865,
                0.02780563198029995,
                0.02500000037252903
            ],
            "min": [
                0.011165219359099865,
                -0.028284404426813126,
                0.0
            ],
            "name": "mesh1_coord_accessor",
            "type": "VEC3"
        },
        {
            "bufferView": 5,
            "componentType": 5126,
            "count": 4,
            "max": [
                1.0,
                0.0,
                0.0
            ],
            "min": [
                1.0,
                0.0,
                0.0
            ],
            "name": "mesh1_norm_accessor",
            "type": "VEC3"
        },
        {
            "bufferView": 6,
            "componentType": 5125,
            "count": 6,
            "max": [
                3.0
            ],
            "min": [
                0.0
            ],
            "name": "mesh2_idx_accessor",
            "type": "SCALAR"
        },
        {
            "bufferView": 7,
            "componentType": 5126,
            "count": 4,
            "max": [
                0.011165219359099865,
                0.02780563198029995,
                0.02500000037252903
            ],
            "min": [
                0.005800512619316578,
                0.02780563198029995,
                0.0
            ],
            "name": "mesh2_coord_accessor",
            "type": "VEC3"
        },
        {
            "bufferView": 8,
            "componentType": 5126,
            "count": 4,
            "max": [
                0.0,
                1.0,
                0.0
            ],
            "min": [
                0.0,
                1.0,
                0.0
            ],
            "name": "mesh2_norm_accessor",
            "type": "VEC3"
        },
        {
            "bufferView": 9,
            "componentType": 5125,
            "count": 6,
            "max": [
                3.0
            ],
            "min": [
                0.0
            ],
            "name": "mesh3_idx_accessor",
            "type": "SCALAR"
        },
        {
            "bufferView": 10,
            "componentType": 5126,
            "count": 4,
            "max": [
                0.005800512619316578,
                0.02780563198029995,
                0.02500000037252903
            ],
            "min": [
                -0.009041434153914452,
                0.01632736809551716,
                0.0
            ],
            "name": "mesh3_coord_accessor",
            "type": "VEC3"
        },
        {
            "bufferView": 11,
            "componentType": 5126,
            "count": 4,
            "max": [
                -0.6117640137672424,
                0.791040301322937,
                0.0
            ],
            "min": [
                -0.6117640137672424,
                0.791040301322937,
                0.0
            ],
            "name": "mesh3_norm_accessor",
            "type": "VEC3"
        },
        {
            "bufferView": 12,
            "componentType": 5125,
            "count": 6,
            "max": [
                3.0
            ],
            "min": [
                0.0
            ],
            "name": "mesh4_idx_accessor",
            "type": "SCALAR"
        },
        {
            "bufferView": 13,
            "componentType": 5126,
            "count": 4,
            "max": [
                -0.005665474105626345,
                0.01632736809551716,
                0.02500000037252903
            ],
            "min": [
                -0.009041434153914452,
                0.011957035399973392,
                0.0
            ],
            "name": "mesh4_coord_accessor",
            "type": "VEC3"
        },
        {
            "bufferView": 14,
            "componentType": 5126,
            "count": 4,
            "max": [
                -0.7913827896118164,
                -0.611320972442627,
                0.0
            ],
            "min": [
                -0.7913827896118164,
                -0.611320972442627,
                0.0
            ],
            "name": "mesh4_norm_accessor",
            "type": "VEC3"
        },
        {
            "bufferView": 15,
            "componentType": 5125,
            "count": 12,
            "max": [
                5.0
            ],
            "min": [
                0.0
            ],
            "name": "mesh5_idx_accessor",
            "type": "SCALAR"
        },
        {
            "bufferView": 16,
            "componentType": 5126,
            "count": 6,
            "max": [
                0.003461893182247877,
                0.019439389929175377,
                0.02500000037252903
            ],
            "min": [
                -0.005665474105626345,
                0.011957035399973392,
                0.0
            ],
            "name": "mesh5_coord_accessor",
            "type": "VEC3"
        },
        {
            "bufferView": 17,
            "componentType": 5126,
            "count": 6,
            "max": [
                0.6594835519790649,
                -0.7517189979553223,
                0.0
            ],
            "min": [
                0.6306808590888977,
                -0.7760422825813293,
                0.0
            ],
            "name": "mesh5_norm_accessor",
            "type": "VEC3"
        },
        {
            "bufferView": 18,
            "componentType": 5125,
            "count": 30,
            "max": [
                11.0
            ],
            "min": [
                0.0
            ],
            "name": "mesh6_idx_accessor",
            "type": "SCALAR"
        },
        {
            "bufferView": 19,
            "componentType": 5126,
            "count": 12,
            "max": [
                0.011165219359099865,
                0.02780563198029995,
                0.02500000037252903
            ],
            "min": [
                -0.009041434153914452,
                -0.028284404426813126,
                0.02500000037252903
            ],
            "name": "mesh6_coord_accessor",
            "type": "VEC3"
        },
        {
            "bufferView": 20,
            "componentType": 5126,
            "count": 12,
            "max": [
                0.0,
                0.0,
                1.0
            ],
            "min": [
                0.0,
                0.0,
                1.0
            ],
            "name": "mesh6_norm_accessor",
            "type": "VEC3"
        },
        {
            "bufferView": 21,
            "componentType": 5125,
            "count": 30,
            "max": [
                11.0
            ],
            "min": [
                0.0
            ],
            "name": "mesh7_idx_accessor",
            "type": "SCALAR"
        },
        {
            "bufferView": 22,
            "componentType": 5126,
            "count": 12,
            "max": [
                0.011165219359099865,
                0.02780563198029995,
                0.0
            ],
            "min": [
                -0.009041434153914452,
                -0.028284404426813126,
                0.0
            ],
            "name": "mesh7_coord_accessor",
            "type": "VEC3"
        },
        {
            "bufferView": 23,
            "componentType": 5126,
            "count": 12,
            "max": [
                -0.0,
                -0.0,
                -1.0
            ],
            "min": [
                -0.0,
                -0.0,
                -1.0
            ],
            "name": "mesh7_norm_accessor",
            "type": "VEC3"
        },
        {
            "bufferView": 24,
            "componentType": 5125,
            "count": 12,
            "max": [
                5.0
            ],
            "min": [
                0.0
            ],
            "name": "mesh8_idx_accessor",
            "type": "SCALAR"
        },
        {
            "bufferView": 25,
            "componentType": 5126,
            "count": 6,
            "max": [
                0.005260359030216932,
                0.0211273692548275,
                0.02500000037252903
            ],
            "min": [
                0.003461893182247877,
                0.019439389929175377,
                0.0
            ],
            "name": "mesh8_coord_accessor",
            "type": "VEC3"
        },
        {
            "bufferView": 26,
            "componentType": 5126,
            "count": 6,
            "max": [
                0.7124837636947632,
                -0.7016885876655579,
                0.0
            ],
            "min": [
                0.6594835519790649,
                -0.7517189979553223,
                0.0
            ],
            "name": "mesh8_norm_accessor",
            "type": "VEC3"
        },
        {
            "bufferView": 27,
            "componentType": 5125,
            "count": 12,
            "max": [
                5.0
            ],
            "min": [
                0.0
            ],
            "name": "mesh9_idx_accessor",
            "type": "SCALAR"
        },
        {
            "bufferView": 28,
            "componentType": 5126,
            "count": 6,
            "max": [
                0.005260359030216932,
                0.0211273692548275,
                0.02500000037252903
            ],
            "min": [
                0.004953453782945871,
                0.011686958372592926,
                0.0
            ],
            "name": "mesh9_coord_accessor",
            "type": "VEC3"
        },
        {
            "bufferView": 29,
            "componentType": 5126,
            "count": 6,
            "max": [
                -0.9976238012313843,
                0.06889667361974716,
                0.0
            ],
            "min": [
                -1.0,
                0.0,
                0.0
            ],
            "name": "mesh9_norm_accessor",
            "type": "VEC3"
        },
        {
            "bufferView": 30,
            "componentType": 5125,
            "count": 6,
            "max": [
                3.0
            ],
            "min": [
                0.0
            ],
            "name": "mesh10_idx_accessor",
            "type": "SCALAR"
        },
        {
            "bufferView": 31,
            "componentType": 5126,
            "count": 4,
            "max": [
                0.004953453782945871,
                0.011686958372592926,
                0.02500000037252903
            ],
            "min": [
                0.004953453782945871,
                -0.028284404426813126,
                0.0
            ],
            "name": "mesh10_coord_accessor",
            "type": "VEC3"
        },
        {
            "bufferView": 32,
            "componentType": 5126,
            "count": 4,
            "max": [
                -1.0,
                0.0,
                0.0
            ],
            "min": [
                -1.0,
                0.0,
                0.0
            ],
            "name": "mesh10_norm_accessor",
            "type": "VEC3"
        }
    ],
    "asset": {
        "version": "2.0"
    },
    "bufferViews": [
        {
            "buffer": 0,
            "byteLength": 24,
            "name": "mesh0_idx_bufferView",
            "target": 34963
        },
        {
            "buffer": 0,
            "byteLength": 48,
            "byteOffset": 24,
            "name": "mesh0_coord_bufferView",
            "target": 34962
        },
        {
            "buffer": 0,
            "byteLength": 48,
            "byteOffset": 72,
            "name": "mesh0_norm_bufferView",
            "target": 34962
        },
        {
            "buffer": 0,
            "byteLength": 24,
            "byteOffset": 120,
            "name": "mesh1_idx_bufferView",
            "target": 34963
        },
        {
            "buffer": 0,
            "byteLength": 48,
            "byteOffset": 144,
            "name": "mesh1_coord_bufferView",
            "target": 34962
        },
        {
            "buffer": 0,
            "byteLength": 48,
            "byteOffset": 192,
            "name": "mesh1_norm_bufferView",
            "target": 34962
        },
        {
            "buffer": 0,
            "byteLength": 24,
            "byteOffset": 240,
            "name": "mesh2_idx_bufferView",
            "target": 34963
        },
        {
            "buffer": 0,
            "byteLength": 48,
            "byteOffset": 264,
            "name": "mesh2_coord_bufferView",
            "target": 34962
        },
        {
            "buffer": 0,
            "byteLength": 48,
            "byteOffset": 312,
            "name": "mesh2_norm_bufferView",
            "target": 34962
        },
        {
            "buffer": 0,
            "byteLength": 24,
            "byteOffset": 360,
            "name": "mesh3_idx_bufferView",
            "target": 34963
        },
        {
            "buffer": 0,
            "byteLength": 48,
            "byteOffset": 384,
            "name": "mesh3_coord_bufferView",
            "target": 34962
        },
        {
            "buffer": 0,
            "byteLength": 48,
            "byteOffset": 432,
            "name": "mesh3_norm_bufferView",
            "target": 34962
        },
        {
            "buffer": 0,
            "byteLength": 24,
            "byteOffset": 480,
            "name": "mesh4_idx_bufferView",
            "target": 34963
        },
        {
            "buffer": 0,
            "byteLength": 48,
            "byteOffset": 504,
            "name": "mesh4_coord_bufferView",
            "target": 34962
        },
        {
            "buffer": 0,
            "byteLength": 48,
            "byteOffset": 552,
            "name": "mesh4_norm_bufferView",
            "target": 34962
        },
        {
            "buffer": 0,
            "byteLength": 48,
            "byteOffset": 600,
            "name": "mesh5_idx_bufferView",
            "target": 34963
        },
        {
            "buffer": 0,
            "byteLength": 72,
            "byteOffset": 648,
            "name": "mesh5_coord_bufferView",
            "target": 34962
        },
        {
            "buffer": 0,
            "byteLength": 72,
            "byteOffset": 720,
            "name": "mesh5_norm_bufferView",
            "target": 34962
        },
        {
            "buffer": 0,
            "byteLength": 120,
            "byteOffset": 792,
            "name": "mesh6_idx_bufferView",
            "target": 34963
        },
        {
            "buffer": 0,
            "byteLength": 144,
            "byteOffset": 912,
            "name": "mesh6_coord_bufferView",
            "target": 34962
        },
        {
            "buffer": 0,
            "byteLength": 144,
            "byteOffset": 1056,
            "name": "mesh6_norm_bufferView",
            "target": 34962
        },
        {
            "buffer": 0,
            "byteLength": 120,
            "byteOffset": 1200,
            "name": "mesh7_idx_bufferView",
            "target": 34963
        },
        {
            "buffer": 0,
            "byteLength": 144,
            "byteOffset": 1320,
            "name": "mesh7_coord_bufferView",
            "target": 34962
        },
        {
            "buffer": 0,
            "byteLength": 144,
            "byteOffset": 1464,
            "name": "mesh7_norm_bufferView",
            "target": 34962
        },
        {
            "buffer": 0,
            "byteLength": 48,
            "byteOffset": 1608,
            "name": "mesh8_idx_bufferView",
            "target": 34963
        },
        {
            "buffer": 0,
            "byteLength": 72,
            "byteOffset": 1656,
            "name": "mesh8_coord_bufferView",
            "target": 34962
        },
        {
            "buffer": 0,
            "byteLength": 72,
            "byteOffset": 1728,
            "name": "mesh8_norm_bufferView",
            "target": 34962
        },
        {
            "buffer": 0,
            "byteLength": 48,
            "byteOffset": 1800,
            "name": "mesh9_idx_bufferView",
            "target": 34963
        },
        {
            "buffer": 0,
            "byteLength": 72,
            "byteOffset": 1848,
            "name": "mesh9_coord_bufferView",
            "target": 34962
        },
        {
            "buffer": 0,
            "byteLength": 72,
            "byteOffset": 1920,
            "name": "mesh9_norm_bufferView",
            "target": 34962
        },
        {
            "buffer": 0,
            "byteLength": 24,
            "byteOffset": 1992,
            "name": "mesh10_idx_bufferView",
            "target": 34963
        },
        {
            "buffer": 0,
            "byteLength": 48,
            "byteOffset": 2016,
            "name": "mesh10_coord_bufferView",
            "target": 34962
        },
        {
            "buffer": 0,
            "byteLength": 48,
            "byteOffset": 2064,
            "name": "mesh10_norm_bufferView",
            "target": 34962
        }
    ],
    "buffers": [
        {
            "byteLength": 2112,
            "name": "Total_buffer",
            "uri": "data:application/octet-stream;base64,"
        }
    ],
    "extensionsUsed": [
        "PTC_onshape_metadata"
    ],
    "materials": [
        {
            "doubleSided": true,
            "name": "0.615686_0.811765_0.929412_0.000000_0.000000",
            "pbrMetallicRoughness": {
                "baseColorFactor": [
                    0.615686297416687,
                    0.8117647171020508,
                    0.929411768913269,
                    1.0
                ],
                "metallicFactor": 0.0
            }
        }
    ],
    "meshes": [
        {
            "name": "mesh0_mesh",
            "primitives": [
                {
                    "attributes": {
                        "NORMAL": 2,
                        "POSITION": 1
                    },
                    "indices": 0,
                    "material": 0
                },
                {
                    "attributes": {
                        "NORMAL": 5,
                        "POSITION": 4
                    },
                    "indices": 3,
                    "material": 0
                },
                {
                    "attributes": {
                        "NORMAL": 8,
                        "POSITION": 7
                    },
                    "indices": 6,
                    "material": 0
                },
                {
                    "attributes": {
                        "NORMAL": 11,
                        "POSITION": 10
                    },
                    "indices": 9,
                    "material": 0
                },
                {
                    "attributes": {
                        "NORMAL": 14,
                        "POSITION": 13
                    },
                    "indices": 12,
                    "material": 0
                },
                {
                    "attributes": {
                        "NORMAL": 17,
                        "POSITION": 16
                    },
                    "indices": 15,
                    "material": 0
                },
                {
                    "attributes": {
                        "NORMAL": 20,
                        "POSITION": 19
                    },
                    "indices": 18,
                    "material": 0
                },
                {
                    "attributes": {
                        "NORMAL": 23,
                        "POSITION": 22
                    },
                    "indices": 21,
                    "material": 0
                },
                {
                    "attributes": {
                        "NORMAL": 26,
                        "POSITION": 25
                    },
                    "indices": 24,
                    "material": 0
                },
                {
                    "attributes": {
                        "NORMAL": 29,
                        "POSITION": 28
                    },
                    "indices": 27,
                    "material": 0
                },
                {
                    "attributes": {
                        "NORMAL": 32,
                        "POSITION": 31
                    },
                    "indices": 30,
                    "material": 0
                }
            ]
        }
    ],
    "nodes": [
        {
            "extensions": {
                "PTC_onshape_metadata": {
                    "entity_type": "Body",
                    "id": [
                        "JHD"
                    ]
                }
            },
            "mesh": 0,
            "name": "1"
        }
    ],
    "scene": 0,
    "scenes": [
        {
            "name": "Root",
            "nodes": [
                0
            ]
        }
    ]
}